
<svg version="1.1" xmlns="http://www.w3.org/2000/svg" width="200" height="45" style=""><path fill="#efd871" d="M26.2,33.4l-10.2-4.7l0-1.4l10.2-4.6l0,1.7l-8,3.6l8,3.7l0,1.7z M32.872,31.7l1.9,0.4l0,1.2l-5.4,0l0-1.2l1.7-0.4l0-10.8l-1.7-0.4l0-1.1l4.2-0.1l6.6,11.18l0-9.58l-1.7-0.4l0-1.1l5.2-0.1l0,1.2l-1.7,0.4l0,12.4l-2.5,0l-6.6-11.02l0,9.42z M47.344,25.8l-0.1-2.5s2.2-0.8,3.9-0.8c2.32,0,3.7,0.8,3.7,3.1l0,6.1l1.6,0.4l0,1.1l-3.1,0.1l-0.42-1.4c-0.68,0.68-1.88,1.6-3.28,1.6c-1.9,0-3-1.1-3-3c0-2.3,1.8-3.1,4.6-3.1l1.6,0l0-1.6c0-1.2-0.7-1.8-1.9-1.8s-2.02,0.3-2.02,0.3l-0.28,1.5l-1.3,0z M52.844,28.7l-1.4,0c-2,0-2.76,0.5-2.76,1.7c0,0.9,0.56,1.5,1.46,1.5c1.5,0,2.7-1.6,2.7-1.6l0-1.6z M62.516,22.7l0.18,1.42c0.46-0.44,1.98-1.62,3.62-1.62c1.44,0,2.32,0.68,2.78,1.72c0.26-0.26,1.88-1.72,3.72-1.72c2.2,0,3.1,1.4,3.1,3.6l0,5.6l1.5,0.5l0,1.1l-4.8,0l0-1.1l1.3-0.5l0-5.4c0-1.4-0.4-2.1-1.7-2.1c-1.7,0-2.8,1.6-2.8,1.6l0,5.9l1.3,0.5l0,1.1l-4.6,0l0-1.1l1.3-0.5l0-5.4c0-1.4-0.4-2.1-1.7-2.1c-1.7,0-2.8,1.6-2.8,1.6l0,5.9l1.3,0.5l0,1.1l-5,0l0-1.1l1.7-0.5l0-7.4l-1.7-0.4l0-1.1z M83.688,31.7l1.9,0.4l0,1.2l-5.4,0l0-1.2l1.7-0.4l0-10.8l-1.7-0.4l0-1.1l4.2-0.1l6.6,11.18l0-9.58l-1.7-0.4l0-1.1l5.2-0.1l0,1.2l-1.7,0.4l0,12.4l-2.5,0l-6.6-11.02l0,9.42z M107.76,23.9l-1.94,0.28s0.54,0.72,0.54,2.02c0,2.7-1.8,3.9-4.4,3.9c-0.9,0-1.5-0.18-1.5-0.18l-0.1,1.88l3.1,0c2.6,0,4,1,4,2.9c0,2.2-1.7,3.6-5.2,3.6c-2.8,0-4.8-0.7-4.8-2.9c0-1.8,2.1-2.5,2.1-2.5s-1.2-0.1-1.2-1.14c0-0.66,1.04-2.26,1.04-2.26s-1.54-0.7-1.54-3.1c0-2.6,1.8-3.9,4.4-3.9c1.3,0,2,0.38,2,0.38l3.5-0.08l0,1.1z M102.16,23.9c-1.6,0-2.3,0.8-2.3,2.4c0,1.4,0.7,2.4,2.2,2.4c1.6,0,2.3-0.7,2.3-2.4c0-1.5-0.7-2.4-2.2-2.4z M102.96,33.3l-2.2,0s-1.3,0.6-1.3,1.8c0,1.4,1.2,1.7,3.1,1.7c2,0,3-0.6,3-1.9s-1-1.6-2.6-1.6z M122.132,32.1l0,1.1l-3.3,0.1l-0.2-1.4c-0.48,0.42-2.06,1.6-3.7,1.6c-2.2,0-3.2-1.38-3.2-3.58l0-5.62l-1.7-0.4l0-1.1l3.7-0.1l0,7.02c0,1.4,0.5,2.08,1.8,2.08c1.7,0,2.9-1.58,2.9-1.58l0-5.92l-1.7-0.4l0-1.1l3.7-0.1l0,9z M127.504,24.1l2.4,7l2.2-6.9l-1.4-0.3l0-1.1l4.74-0.1l0,1.2l-1.3,0.2l-2.84,7.92c-1.06,2.78-2.1,6.08-5.4,6.08c-0.5,0-1.28-0.1-1.28-0.1l0.18-1.4l1,0c1.4,0,2.3-1.32,3.18-3.26l-3.58-9.14l-1.2-0.3l0-1.1l4.7-0.1l0,1.2z M146.716,28.3l-6.9,0c0,2.2,1.18,3.6,2.9,3.6c2,0,3.36-1.1,3.36-1.1l0.7,1.04s-1.86,1.66-4.26,1.66c-3.2,0-4.8-2.1-4.8-5.4c0-3.2,2-5.6,4.9-5.6s4.2,1.7,4.2,4.7c0,0.5-0.1,1.06-0.1,1.1z M139.896,26.8l4.8,0c0-1.5-0.58-2.74-2.18-2.74s-2.5,1.24-2.62,2.74z M153.188,22.7l0.18,1.42c0.48-0.42,2.06-1.62,3.72-1.62c2.2,0,3.2,1.4,3.2,3.6l0,5.6l1.5,0.5l0,1.1l-4.8,0l0-1.1l1.3-0.5l0-5.4c0-1.4-0.5-2.1-1.8-2.1c-1.7,0-2.9,1.6-2.9,1.6l0,5.9l1.3,0.5l0,1.1l-5,0l0-1.1l1.7-0.5l0-7.4l-1.7-0.4l0-1.1z M173.28,19.3l-6.62,14l-2.1,0l6.62-14l2.1,0z M176.252,24.4l0-1.7l10.2,4.6l0,1.4l-10.2,4.7l0-1.7l8-3.7z"/><path fill="#" d=""/></svg>
